<svg xmlns="http://www.w3.org/2000/svg" xmlns:xlink="http://www.w3.org/1999/xlink" id="Layer_1" width="84.67" height="118" x="0" y="0" enable-background="new 0 0 84.67 118" version="1.1" viewBox="0 0 84.67 118" xml:space="preserve"><g><defs><rect id="SVGID_1_" width="84.67" height="118"/></defs><clipPath id="SVGID_2_"><use overflow="visible" xlink:href="#SVGID_1_"/></clipPath><polygon fill="#F5F4F5" points="0 0 0 28.23 0 103.74 0 118 14.26 118 70.4 118 84.67 103.74 84.67 0" clip-path="url(#SVGID_2_)"/><polygon fill="#98ADC3" points="70.4 103.74 70.4 118 84.67 103.74" clip-path="url(#SVGID_2_)"/><g clip-path="url(#SVGID_2_)"><defs><rect id="SVGID_3_" width="84.67" height="118"/></defs><clipPath id="SVGID_4_"><use overflow="visible" xlink:href="#SVGID_3_"/></clipPath><path fill="#98ADC3" d="M18.82,48.24c0,1.7-1.38,3.07-3.07,3.07c-1.7,0-3.07-1.38-3.07-3.07 c0-1.7,1.38-3.07,3.07-3.07C17.45,45.17,18.82,46.54,18.82,48.24" clip-path="url(#SVGID_4_)"/><path fill="#98ADC3" d="M69.77,50.8H27.53c-1.41,0-2.56-1.15-2.56-2.56c0-1.41,1.15-2.56,2.56-2.56 h42.24c1.41,0,2.56,1.15,2.56,2.56C72.33,49.65,71.18,50.8,69.77,50.8" clip-path="url(#SVGID_4_)"/><path fill="#98ADC3" d="M18.82,62.8c0,1.7-1.38,3.07-3.07,3.07c-1.7,0-3.07-1.38-3.07-3.07 c0-1.7,1.38-3.07,3.07-3.07C17.45,59.73,18.82,61.11,18.82,62.8" clip-path="url(#SVGID_4_)"/><path fill="#98ADC3" d="M69.77,65.36H27.53c-1.41,0-2.56-1.15-2.56-2.56s1.15-2.56,2.56-2.56h42.24 c1.41,0,2.56,1.15,2.56,2.56S71.18,65.36,69.77,65.36" clip-path="url(#SVGID_4_)"/><path fill="#98ADC3" d="M18.82,77.37c0,1.7-1.38,3.07-3.07,3.07c-1.7,0-3.07-1.38-3.07-3.07 c0-1.7,1.38-3.07,3.07-3.07C17.45,74.29,18.82,75.67,18.82,77.37" clip-path="url(#SVGID_4_)"/><path fill="#98ADC3" d="M69.77,79.93H27.53c-1.41,0-2.56-1.15-2.56-2.56c0-1.41,1.15-2.56,2.56-2.56 h42.24c1.41,0,2.56,1.15,2.56,2.56C72.33,78.77,71.18,79.93,69.77,79.93" clip-path="url(#SVGID_4_)"/><path fill="#98ADC3" d="M18.82,91.93c0,1.7-1.38,3.07-3.07,3.07c-1.7,0-3.07-1.38-3.07-3.07 c0-1.7,1.38-3.07,3.07-3.07C17.45,88.85,18.82,90.23,18.82,91.93" clip-path="url(#SVGID_4_)"/><path fill="#98ADC3" d="M69.77,94.49H27.53c-1.41,0-2.56-1.15-2.56-2.56c0-1.41,1.15-2.56,2.56-2.56 h42.24c1.41,0,2.56,1.15,2.56,2.56C72.33,93.34,71.18,94.49,69.77,94.49" clip-path="url(#SVGID_4_)"/><path fill="#7B585B" d="M48.15,17.95H36.06c-0.94,0-1.7-0.76-1.7-1.7v-4.3c0-0.94,0.76-1.7,1.7-1.7 h12.09c0.94,0,1.7,0.76,1.7,1.7v4.3C49.85,17.19,49.09,17.95,48.15,17.95" clip-path="url(#SVGID_4_)"/><path fill="#7B585B" d="M53.46,35H30.75c-0.94,0-1.7-0.76-1.7-1.7V29c0-0.94,0.76-1.7,1.7-1.7h22.71 c0.94,0,1.7,0.76,1.7,1.7v4.3C55.16,34.24,54.4,35,53.46,35" clip-path="url(#SVGID_4_)"/><path fill="#5D5876" d="M53.78,30.98H30.42c-1.33,0-2.22-1.37-1.67-2.59l4.91-10.92 c0.3-0.66,0.95-1.08,1.67-1.08h13.55c0.72,0,1.38,0.42,1.67,1.08l4.91,10.92C56,29.6,55.12,30.98,53.78,30.98" clip-path="url(#SVGID_4_)"/><path fill="#FFF" d="M48.94,16.61l-0.46-4.23c-0.05-0.45-0.43-0.79-0.89-0.79H46.5h-8.8h-1.09 c-0.45,0-0.84,0.34-0.89,0.79l-0.46,4.23c-0.06,0.53,0.35,0.99,0.89,0.99h1.55h8.8h1.55C48.58,17.6,49,17.14,48.94,16.61" clip-path="url(#SVGID_4_)"/><g clip-path="url(#SVGID_4_)" opacity=".54"><g><defs><rect id="SVGID_5_" width="13.51" height="24.75" x="42.11" y="10.25"/></defs><clipPath id="SVGID_6_"><use overflow="visible" xlink:href="#SVGID_5_"/></clipPath><path fill="#484759" d="M55.46,28.39l-4.91-10.92c-0.16-0.35-0.43-0.64-0.75-0.83 c0.03-0.12,0.05-0.25,0.05-0.39v-4.3c0-0.94-0.76-1.7-1.7-1.7h-6.03V35h11.34c0.94,0,1.7-0.76,1.7-1.7v-2.94 C55.61,29.84,55.77,29.09,55.46,28.39" clip-path="url(#SVGID_6_)"/></g></g><g clip-path="url(#SVGID_4_)" opacity=".1"><g><defs><rect id="SVGID_7_" width="42.33" height="118" x="42.33"/></defs><clipPath id="SVGID_8_"><use overflow="visible" xlink:href="#SVGID_7_"/></clipPath><polygon fill="#8C8E9C" points="55.94 0 42.33 0 42.33 118 70.4 118 84.67 103.74 84.67 28.23 84.67 0" clip-path="url(#SVGID_8_)"/></g></g></g></g></svg>