<svg xmlns="http://www.w3.org/2000/svg" xmlns:xlink="http://www.w3.org/1999/xlink" id="Layer_1" width="289" height="206.827" x="0" y="0" enable-background="new 0 0 289 206.827" version="1.1" viewBox="0 0 289 206.827" xml:space="preserve"><g><defs><path id="SVGID_1_" d="M0,206V11.348C0,5.081,5.076,0,11.339,0h266.323C283.924,0,289,5.081,289,11.348V206H0z"/></defs><clipPath id="SVGID_2_"><use overflow="visible" xlink:href="#SVGID_1_"/></clipPath><linearGradient id="SVGID_3_" x1="144.5" x2="144.5" y1="276" y2="0" gradientUnits="userSpaceOnUse"><stop offset=".316" stop-color="#FFF"/><stop offset="1" stop-color="#ADE1F9"/></linearGradient><path fill="url(#SVGID_3_)" d="M277.661,276H11.339C5.076,276,0,270.924,0,264.661 V11.339C0,5.076,5.076,0,11.339,0h266.323C283.924,0,289,5.076,289,11.339v253.323C289,270.924,283.924,276,277.661,276z" clip-path="url(#SVGID_2_)" display="none"/><g clip-path="url(#SVGID_2_)"><g><g><ellipse cx="228.9" cy="58.033" fill="#84C66F" rx="28.909" ry="25.44"/><ellipse cx="228.9" cy="58.033" fill="#7D6254" rx="23.325" ry="20.526"/></g><path fill="#5587C6" d="M239.753,220.501h-21.707c-11.469,0-20.862-9.116-21.204-20.58l-3.572-119.748 c-0.357-11.958,9.24-21.845,21.204-21.845h28.851c11.963,0,21.56,9.887,21.204,21.845l-3.572,119.748 C260.615,211.385,251.222,220.501,239.753,220.501z"/><g><defs><path id="SVGID_4_" d="M239.753,220.501h-21.707c-11.469,0-20.862-9.116-21.204-20.58l-3.572-119.748 c-0.357-11.958,9.24-21.845,21.204-21.845h28.851c11.963,0,21.56,9.887,21.204,21.845l-3.572,119.748 C260.615,211.385,251.222,220.501,239.753,220.501z"/></defs><use fill="#84C66F" overflow="visible" xlink:href="#SVGID_4_"/><clipPath id="SVGID_5_"><use overflow="visible" xlink:href="#SVGID_4_"/></clipPath><g clip-path="url(#SVGID_5_)"><rect width="72.852" height="2.891" x="192.549" y="86.027" fill="#497B3A"/><rect width="72.852" height="2.891" x="192.549" y="112.624" fill="#497B3A"/><rect width="72.852" height="2.891" x="192.549" y="139.22" fill="#497B3A"/><rect width="72.852" height="2.891" x="192.549" y="165.817" fill="#497B3A"/><rect width="72.852" height="2.891" x="192.549" y="192.414" fill="#497B3A"/></g></g></g><path fill="#284D7B" d="M264.354,86.027l0.175-5.854c0.199-6.672-2.703-12.697-7.383-16.722 c0.431-1.746,0.663-3.557,0.663-5.417c0-14.05-12.943-25.44-28.909-25.44c-0.109,0-0.216,0.006-0.324,0.007v187.901h11.177 c11.469,0,20.862-9.116,21.204-20.58l0.138-4.616" opacity=".4"/></g><g clip-path="url(#SVGID_2_)"><polygon fill="#93C4DB" points="188.882 187.134 178.993 67.002 178.993 57.431 116.782 57.431 116.782 64.99 106.728 187.134 141.312 189.98 147.805 111.107 154.297 189.98"/><polygon fill="#83A7BB" points="178.993 67.002 178.993 57.431 147.744 57.431 147.744 111.841 147.805 111.107 154.297 189.98 188.882 187.133"/></g><g clip-path="url(#SVGID_2_)"><path fill="#F58E75" d="M160.441,125.388l-50.635-54.479l-0.01-0.156h-8.165c0.002,0.11,0.008,0.22,0.008,0.331 c0,9.602-7.723,17.395-17.295,17.519c-9.572-0.124-17.295-7.918-17.295-17.519c0-0.111,0.006-0.22,0.008-0.331h-8.165l-0.01,0.156 L8.248,125.388l9.809,11.391l38.796-33.285l-2.369,47.833h29.702h0.316h29.702l-2.369-47.833l38.796,33.285L160.441,125.388z"/><path fill="#AA5640" d="M160.441,125.388l-50.635-54.479l-0.01-0.156h-8.165c0.002,0.11,0.008,0.22,0.008,0.331 c0,9.549-7.638,17.305-17.137,17.513v62.73h29.702l-2.369-47.833l38.796,33.285L160.441,125.388z" opacity=".4"/></g></g></svg>