<svg xmlns="http://www.w3.org/2000/svg" xmlns:xlink="http://www.w3.org/1999/xlink" id="Layer_1" width="289" height="206.827" x="0" y="0" enable-background="new 0 0 289 206.827" version="1.1" viewBox="0 0 289 206.827" xml:space="preserve"><g><defs><path id="SVGID_1_" d="M0,206V11.348C0,5.081,5.076,0,11.339,0h266.323C283.924,0,289,5.081,289,11.348V206H0z"/></defs><clipPath id="SVGID_2_"><use overflow="visible" xlink:href="#SVGID_1_"/></clipPath><linearGradient id="SVGID_3_" x1="144.5" x2="144.5" y1="276" y2="0" gradientUnits="userSpaceOnUse"><stop offset=".316" stop-color="#FFF"/><stop offset="1" stop-color="#ADE1F9"/></linearGradient><path fill="url(#SVGID_3_)" d="M277.661,276H11.339C5.076,276,0,270.924,0,264.661 V11.339C0,5.076,5.076,0,11.339,0h266.323C283.924,0,289,5.076,289,11.339v253.323C289,270.924,283.924,276,277.661,276z" clip-path="url(#SVGID_2_)" display="none"/><g clip-path="url(#SVGID_2_)"><g><g><rect width="21.433" height="25.402" x="182.847" y="72.664" fill="#A0CE62"/><rect width="21.433" height="5.392" x="182.847" y="74.733" fill="#FFF350"/><path fill="#D7E8BD" d="M196.342,79.552L196.342,79.552c0.451,0.915,1.324,1.548,2.333,1.695h0 c2.541,0.369,3.556,3.493,1.717,5.285l0,0c-0.73,0.712-1.064,1.737-0.891,2.743v0c0.434,2.531-2.223,4.461-4.496,3.266h0 c-0.903-0.475-1.981-0.475-2.884,0l0,0c-2.273,1.195-4.93-0.735-4.496-3.266v0c0.172-1.005-0.161-2.031-0.891-2.743h0 c-1.839-1.793-0.824-4.916,1.717-5.285l0,0c1.009-0.147,1.882-0.781,2.333-1.695v0 C191.922,77.249,195.206,77.249,196.342,79.552z"/></g><polygon fill="#BBDEBC" points="193.431 72.664 193.431 74.733 193.431 80.126 193.431 98.066 204.28 98.066 204.28 80.126 204.28 74.733 204.28 72.664"/></g><g><g><rect width="64.325" height="82.276" x="140.892" y="97.698" fill="#D7E8F2"/><rect width="64.325" height="2.986" x="140.892" y="176.988" fill="#6E757B"/><rect width="64.325" height="8.387" x="140.892" y="97.698" fill="#6E757B"/><circle cx="173.054" cy="140.706" r="18.325" fill="#ADE1F9"/><path fill="#81A0AE" d="M173.054,119.389c-11.773,0-21.317,9.544-21.317,21.317c0,11.773,9.544,21.317,21.317,21.317 c11.773,0,21.317-9.544,21.317-21.317C194.371,128.933,184.827,119.389,173.054,119.389z M173.054,156.787 c-8.881,0-16.081-7.2-16.081-16.081c0-8.881,7.2-16.081,16.081-16.081c8.881,0,16.081,7.2,16.081,16.081 C189.135,149.587,181.936,156.787,173.054,156.787z"/><g><circle cx="173.054" cy="101.687" r="2.743" fill="#D7E8F2"/><circle cx="182.528" cy="101.687" r="2.119" fill="#D7E8F2"/><circle cx="163.58" cy="101.687" r="2.119" fill="#D7E8F2"/></g><path fill="#6E757B" d="M198.506,136.592h-8.976c-2.605,0-4.737,2.132-4.737,4.737v0c0,2.605,2.132,4.737,4.737,4.737h8.976 V136.592z"/></g><polygon fill="#52A4C5" points="173.158 97.698 173.158 106.084 173.158 176.988 173.158 179.974 205.217 179.974 205.217 176.988 205.217 106.084 205.217 97.698" opacity=".4"/></g></g><g clip-path="url(#SVGID_2_)"><path fill="none" stroke="#B0BFC8" stroke-miterlimit="10" stroke-width="4" d="M68.477,178.33V46.997 c0-11.917,9.75-21.667,21.667-21.667h0c11.917,0,21.667,9.75,21.667,21.667"/><path fill="#B0BFC8" d="M123.929,57.178h-0.196c-0.738-6.155-5.955-10.931-12.308-10.931s-11.57,4.776-12.308,10.931H98.92 c-0.638,0-1.159,0.522-1.159,1.159c0,0.638,0.522,1.159,1.159,1.159h25.009c0.638,0,1.159-0.522,1.159-1.159 C125.089,57.7,124.567,57.178,123.929,57.178z"/><g><polygon fill="#B0BFC8" points="44.435 179.33 68.477 172.33 92.518 179.33"/><path fill="#B0BFC8" d="M91.977,179.997h-47c-0.825,0-1.5-0.675-1.5-1.5l0,0c0-0.825,0.675-1.5,1.5-1.5h47 c0.825,0,1.5,0.675,1.5,1.5l0,0C93.477,179.322,92.802,179.997,91.977,179.997z"/></g><g><rect width="2" height="10.391" x="110.424" y="63.164" fill="#52A4C5" opacity=".4"/><rect width="2" height="10.391" x="110.424" y="77.83" fill="#52A4C5" opacity=".4"/><rect width="2" height="10.391" x="110.424" y="92.497" fill="#52A4C5" opacity=".4"/><rect width="2" height="10.391" x="110.424" y="107.164" fill="#52A4C5" opacity=".4"/></g><g><rect width="2" height="10.391" x="102.32" y="63.339" fill="#52A4C5" opacity=".4" transform="matrix(0.992 0.1259 -0.1259 0.992 9.4526 -12.465)"/><rect width="2" height="10.391" x="100.473" y="77.889" fill="#52A4C5" opacity=".4" transform="matrix(0.992 0.1259 -0.1259 0.992 11.2701 -12.1166)"/><rect width="2" height="10.391" x="98.626" y="92.438" fill="#52A4C5" opacity=".4" transform="matrix(0.992 0.1259 -0.1259 0.992 13.0875 -11.7682)"/><rect width="2" height="10.391" x="96.779" y="106.988" fill="#52A4C5" opacity=".4" transform="matrix(0.992 0.1259 -0.1259 0.992 14.905 -11.4198)"/></g><path fill="#B0BFC8" d="M123.929,57.178h-0.196c-0.71-5.92-5.567-10.552-11.59-10.898v13.216h11.786 c0.638,0,1.159-0.522,1.159-1.159C125.089,57.7,124.567,57.178,123.929,57.178z"/><rect width="2" height="10.391" x="118.529" y="63.339" fill="#1B75BB" transform="matrix(-0.992 0.1259 -0.1259 -0.992 246.7369 121.4707)"/><rect width="2" height="10.391" x="120.376" y="77.889" fill="#1B75BB" transform="matrix(-0.992 0.1259 -0.1259 -0.992 252.2482 150.2222)"/><rect width="2" height="10.391" x="122.223" y="92.438" fill="#1B75BB" transform="matrix(-0.992 0.1259 -0.1259 -0.992 257.7594 178.9736)"/><rect width="2" height="10.391" x="124.07" y="106.988" fill="#1B75BB" transform="matrix(-0.992 0.1259 -0.1259 -0.992 263.2707 207.7251)"/></g><g clip-path="url(#SVGID_2_)"><path fill="#ED1A3D" d="M248.297,166.801L248.297,166.801c-1.391,0.309-2.782-0.576-3.091-1.967l-18.557-83.458 c-0.309-1.391,0.576-2.782,1.967-3.091l0,0c1.391-0.309,2.782,0.576,3.091,1.967l18.557,83.458 C250.573,165.101,249.688,166.492,248.297,166.801z"/><path fill="#BD1330" d="M231.707,80.251c-0.296-1.33-1.58-2.184-2.908-1.988l19.314,88.56c0.061-0.009,0.122-0.008,0.184-0.022 c1.391-0.309,2.276-1.7,1.967-3.091L231.707,80.251z"/><rect width="11.803" height="25.808" x="233.993" y="79.635" fill="#FFF" transform="matrix(0.9762 -0.217 0.217 0.9762 -14.3667 54.275)"/></g></g></svg>